<svg xmlns="http://www.w3.org/2000/svg" width="26.208" height="27.894" viewBox="0 0 26.208 27.894">
  <g id="certainty" transform="translate(-795 -1086.5)">
    <g id="Path_139" data-name="Path 139" transform="translate(797 1070.046)" fill="#fff" stroke-linecap="round" stroke-linejoin="round">
      <path d="M 11.10372066497803 43.34774017333984 C 9.628520965576172 43.34774017333984 8.153000831604004 42.60362243652344 6.71812105178833 41.13606262207031 C 4.266191005706787 38.62826919555664 2.334550857543945 34.4505615234375 1.145870804786682 31.38749122619629 C -0.03945916891098022 28.33303070068359 -1.022159218788147 24.92201995849609 -1.000019192695618 23.93896102905273 C -0.9819491505622864 23.13732147216797 -0.3495791554450989 22.44248008728027 1.18268084526062 21.54064178466797 C 2.127600908279419 20.98448181152344 3.414910793304443 20.35457038879395 5.008831024169922 19.66839027404785 C 6.641040802001953 18.96573066711426 8.115350723266602 18.41084098815918 8.848891258239746 18.14261054992676 C 10.73183059692383 17.4541015625 10.94677066802979 17.4541015625 11.10372066497803 17.4541015625 C 11.26066112518311 17.4541015625 11.47559070587158 17.4541015625 13.3626012802124 18.14485168457031 C 14.09739112854004 18.41383171081543 15.57412052154541 18.97017097473145 17.20866012573242 19.67411041259766 C 18.80444145202637 20.36136054992676 20.09212112426758 20.99150085449219 21.03593063354492 21.54701042175293 C 22.57315063476562 22.45181083679199 23.20235061645508 23.14941024780273 23.20769119262695 23.9548511505127 C 23.21359062194824 24.84645080566406 22.33955001831055 28.06503105163574 21.02901077270508 31.43528175354004 C 19.82785034179688 34.52423095703125 17.8784008026123 38.72743988037109 15.41252040863037 41.20970153808594 C 14.00318050384521 42.62840270996094 12.55349063873291 43.34774017333984 11.10372066497803 43.34774017333984 Z" stroke="none"/>
      <path d="M 11.10372066497803 18.4541015625 C 10.67312049865723 18.4541015625 0.03704071044921875 22.30575942993164 -0.0002689361572265625 23.96147918701172 C -0.03756904602050781 25.61720275878906 4.971160888671875 42.34774017333984 11.10372066497803 42.34774017333984 C 17.23628044128418 42.34774017333984 22.21857070922852 25.60211181640625 22.20770072937012 23.96147918701172 C 22.19684028625488 22.32086181640625 11.53432083129883 18.4541015625 11.10372066497803 18.4541015625 M 11.10372066497803 16.4541015625 C 11.41053104400635 16.4541015625 11.65287113189697 16.4541015625 13.7063512802124 17.20579147338867 C 14.45092105865479 17.47835159301758 15.94739151000977 18.04212951660156 17.60420036315918 18.75566101074219 C 19.23822021484375 19.45938110351562 20.56348037719727 20.10858154296875 21.54317092895508 20.68521118164062 C 22.19418144226074 21.06838989257812 22.69664001464844 21.42121124267578 23.07927131652832 21.76382064819336 C 23.82282066345215 22.42959976196289 24.20247077941895 23.16455078125 24.20766067504883 23.9482421875 C 24.21610069274902 25.22341918945312 23.07200050354004 28.94064140319824 21.96103096008301 31.79768180847168 C 20.72539138793945 34.97530364990234 18.7093505859375 39.30987167358398 16.12199020385742 41.9144287109375 C 14.51803016662598 43.52906036376953 12.82964038848877 44.34774017333984 11.10372066497803 44.34774017333984 C 9.34928035736084 44.34774017333984 7.633191108703613 43.50239181518555 6.003101348876953 41.83515930175781 C 3.432840347290039 39.20635223388672 1.436090469360352 34.89942932128906 0.2136116027832031 31.74928092956543 C -0.8966693878173828 28.88823127746582 -2.028139114379883 25.17613220214844 -1.999759674072266 23.91643905639648 C -1.982328414916992 23.14278030395508 -1.599729537963867 22.41658020019531 -0.8625984191894531 21.75801086425781 C -0.4786796569824219 21.41500091552734 0.02442169189453125 21.0620002746582 0.6754512786865234 20.67882919311523 C 1.656290054321289 20.10153961181641 2.981210708618164 19.45254898071289 4.613410949707031 18.7498893737793 C 6.267991065979004 18.03760147094727 7.762110710144043 17.47524261474609 8.505471229553223 17.20343017578125 C 10.55473041534424 16.4541015625 10.79700088500977 16.4541015625 11.10372066497803 16.4541015625 Z" stroke="none" fill="#707070"/>
    </g>
    <path id="Path_140" data-name="Path 140" d="M31.75,7622.448l4.132,4.208,3.227-3.227,5.283-5.283" transform="translate(771.237 -6522.399)" fill="none" stroke="#707070" stroke-linecap="round" stroke-linejoin="round" stroke-width="2"/>
  </g>
</svg>
