<?xml version="1.0" encoding="utf-8"?>
<!-- Generator: Adobe Illustrator 28.0.0, SVG Export Plug-In . SVG Version: 6.00 Build 0)  -->
<svg version="1.1" id="Layer_1"
	xmlns="http://www.w3.org/2000/svg"
	xmlns:xlink="http://www.w3.org/1999/xlink" x="0px" y="0px" viewBox="0 0 1494 104" style="enable-background:new 0 0 1494 104;" xml:space="preserve">
	<style type="text/css">
	.st0{clip-path:url(#SVGID_00000132047037214107677250000000050052950894142863_);}
	.st1{fill:none;stroke:#39c674;stroke-width:2;stroke-miterlimit:10;}

	</style>
	<g>
		<defs>
			<polygon id="SVGID_1_" points="1499.27,103.52 -0.42,103.52 -0.42,-0.14 1508.26,-0.14 		"/>
		</defs>
		<clipPath id="SVGID_00000145016677601837872720000018362505542892989870_">
			<use xlink:href="#SVGID_1_" style="overflow:visible;"/>
		</clipPath>
		<g style="clip-path:url(#SVGID_00000145016677601837872720000018362505542892989870_);">
			<polyline class="st1" points="1486.6,135.25 1615.14,198.42 1598.89,314.19 1501.99,363.99 1350.51,328.1 1324.56,276.59 
			1333.12,207.53 1447.9,203.22 1486.6,135.25 1442.27,-46.34 		"/>
			<polyline class="st1" points="1503.27,-340.88 1463.07,-228.96 1442.27,-46.34 1253.06,28.33 		"/>
			<line class="st1" x1="1279.44" y1="196.92" x2="1073.14" y2="225.93"/>
			<line class="st1" x1="1219.53" y1="-467.37" x2="1503.27" y2="-340.88"/>
			<path class="st1" d="M969.6-152.87"/>
			<line class="st1" x1="1279.44" y1="196.92" x2="1324.56" y2="276.59"/>
			<g>
				<polyline class="st1" points="1279.44,196.92 1253.06,28.33 1204.91,-257.67 1120.64,-186.81 969.6,-152.87 1219.53,-467.37 			
				"/>
			</g>
			<polyline class="st1" points="677.75,185.08 911.04,161.07 964.56,259.77 1073.14,225.93 		"/>
			<line class="st1" x1="1073.14" y1="225.93" x2="1046.74" y2="506.9"/>
			<line class="st1" x1="1350.51" y1="328.1" x2="1264.25" y2="463.85"/>
			<polyline class="st1" points="1264.25,463.85 1366.39,376.39 1492.77,464.04 1165.2,812.63 		"/>
			<line class="st1" x1="1046.74" y1="506.9" x2="908.49" y2="654.61"/>
			<polyline class="st1" points="908.49,654.61 911.73,553.77 525.85,672.68 339.63,824.72 		"/>
			<polyline class="st1" points="339.63,824.72 491.97,889.32 908.49,654.61 		"/>
			<line class="st1" x1="810.08" y1="710.07" x2="749.62" y2="829.74"/>
			<line class="st1" x1="749.62" y1="829.74" x2="837.9" y2="927.62"/>
			<line class="st1" x1="837.9" y1="927.62" x2="759.08" y2="1114.71"/>
			<polyline class="st1" points="749.62,829.74 636.71,955.18 556.24,852.3 		"/>
			<polyline class="st1" points="1165.2,812.63 1065.92,697.4 953.7,694.18 837.9,927.62 		"/>
			<line class="st1" x1="1264.25" y1="463.85" x2="1065.92" y2="697.4"/>
			<polyline class="st1" points="339.63,824.72 303.87,895.81 661.84,1129.9 759.08,1114.71 		"/>
			<polyline class="st1" points="677.75,185.08 729.35,358.04 356.81,709.82 250.07,464.66 		"/>
			<polyline class="st1" points="250.07,464.66 506.41,275.26 517.61,103.34 		"/>
			<polyline class="st1" points="506.41,275.26 388.37,145.86 292.99,140.93 139.33,6.11 6.67,169.9 240.71,402.82 		"/>
			<line class="st1" x1="517.61" y1="103.34" x2="677.75" y2="185.08"/>
			<line class="st1" x1="846.39" y1="167.73" x2="810.6" y2="33.33"/>
			<line class="st1" x1="806.86" y1="-168.6" x2="863.19" y2="-83.81"/>
			<polyline class="st1" points="806.86,-168.6 744.63,-27.35 810.6,33.33 		"/>
			<polyline class="st1" points="704.27,-262.39 519.71,21.5 517.61,103.34 		"/>
			<line class="st1" x1="806.86" y1="-168.6" x2="704.27" y2="-262.39"/>
			<polyline class="st1" points="524.02,-315.08 482.85,-338.31 532.61,-475.46 717.86,-357.56 854.77,-417.22 911.5,-228.07 
			806.86,-168.6 		"/>
			<polyline class="st1" points="524.02,-315.08 559.7,-388.39 704.27,-262.39 		"/>
			<polyline class="st1" points="758.31,-375.18 751.17,-735.75 913.78,-627.72 913.2,-195.2 810.6,33.33 		"/>
			<polyline class="st1" points="913.72,-578.03 948.82,-623.5 1108.14,-611.76 1139.2,-511.47 1021.22,-339.1 1040.75,-324.43 
			1173.21,-494.04 1219.53,-467.37 		"/>
			<polyline class="st1" points="1046.74,506.9 994.8,509.21 925.92,274.54 985.92,310.05 1073.14,225.93 		"/>
			<line class="st1" x1="240.71" y1="402.82" x2="250.07" y2="464.66"/>
			<polyline class="st1" points="548.3,-22.47 502.93,-91.83 524.02,-315.08 		"/>
			<polyline class="st1" points="494.29,-369.42 386.5,-381.46 213.47,-258.87 239.36,-134.92 -87.67,155.91 67.48,373.91 		"/>
			<line class="st1" x1="67.48" y1="373.91" x2="140.03" y2="302.62"/>
			<line class="st1" x1="67.48" y1="373.91" x2="276.29" y2="524.89"/>
			<polyline class="st1" points="67.48,373.91 -127.44,361.89 -132.23,445.62 		"/>
			<polyline class="st1" points="-132.23,445.62 8.61,595.44 184.73,585.02 276.29,524.89 		"/>
			<line class="st1" x1="108.83" y1="590.24" x2="145.3" y2="731.64"/>
			<line class="st1" x1="145.3" y1="731.64" x2="339.63" y2="824.72"/>
			<polyline class="st1" points="145.3,731.64 -156.28,696.87 -132.23,445.62 		"/>
			<line class="st1" x1="1165.2" y1="812.63" x2="759.08" y2="1114.71"/>
			<polyline class="st1" points="1503.27,-340.88 1693.51,-118.4 1662.73,-42.68 1537.92,-130.04 1442.27,-46.34 		"/>
			<line class="st1" x1="1662.73" y1="-42.68" x2="1615.14" y2="198.42"/>
			<g>
				<line class="st1" x1="611.93" y1="-120.49" x2="711.83" y2="-253.56"/>
				<line class="st1" x1="518.99" y1="49.72" x2="732.81" y2="-235.12"/>
				<line class="st1" x1="517.75" y1="97.76" x2="753.87" y2="-216.77"/>
				<line class="st1" x1="539.87" y1="114.7" x2="774.64" y2="-198.06"/>
				<line class="st1" x1="565.05" y1="127.55" x2="795.3" y2="-179.17"/>
				<line class="st1" x1="590.23" y1="140.4" x2="786.74" y2="-121.38"/>
				<line class="st1" x1="615.41" y1="153.26" x2="748.39" y2="-23.89"/>
				<line class="st1" x1="640.59" y1="166.11" x2="768.29" y2="-4.01"/>
				<line class="st1" x1="665.77" y1="178.96" x2="789.6" y2="14.01"/>
				<line class="st1" x1="697.84" y1="182.64" x2="810.17" y2="33"/>
				<line class="st1" x1="735.28" y1="179.16" x2="819.54" y2="66.91"/>
				<line class="st1" x1="773.03" y1="175.27" x2="828.66" y2="101.16"/>
				<line class="st1" x1="810.77" y1="171.39" x2="837.78" y2="135.41"/>
			</g>
			<g>
				<line class="st1" x1="457.34" y1="-374.99" x2="521.34" y2="-285.03"/>
				<line class="st1" x1="421.32" y1="-377.57" x2="517.19" y2="-242.8"/>
				<line class="st1" x1="385.08" y1="-380.46" x2="512.37" y2="-201.54"/>
				<line class="st1" x1="362.35" y1="-364.35" x2="509.81" y2="-157.08"/>
				<line class="st1" x1="339.63" y1="-348.25" x2="505.17" y2="-115.55"/>
				<line class="st1" x1="316.9" y1="-332.15" x2="543" y2="-14.32"/>
				<line class="st1" x1="294.17" y1="-316.04" x2="526.68" y2="10.78"/>
				<line class="st1" x1="271.44" y1="-299.94" x2="519.03" y2="48.08"/>
				<line class="st1" x1="248.71" y1="-283.84" x2="517.84" y2="94.46"/>
				<line class="st1" x1="225.99" y1="-267.74" x2="515.29" y2="138.93"/>
				<line class="st1" x1="219.85" y1="-228.31" x2="512.43" y2="182.95"/>
				<line class="st1" x1="234.06" y1="-160.29" x2="509.56" y2="226.97"/>
				<line class="st1" x1="226.23" y1="-123.24" x2="506.69" y2="270.99"/>
				<line class="st1" x1="205.29" y1="-104.62" x2="383.31" y2="145.6"/>
				<line class="st1" x1="184.36" y1="-86" x2="347.82" y2="143.77"/>
				<line class="st1" x1="163.42" y1="-67.38" x2="312.33" y2="141.93"/>
				<line class="st1" x1="142.57" y1="-48.64" x2="251.59" y2="104.61"/>
				<line class="st1" x1="121.34" y1="-30.43" x2="160.64" y2="24.81"/>
				<line class="st1" x1="100.57" y1="-11.57" x2="125.39" y2="23.32"/>
				<line class="st1" x1="79.58" y1="6.97" x2="107.19" y2="45.79"/>
				<line class="st1" x1="58.73" y1="25.72" x2="89" y2="68.26"/>
				<line class="st1" x1="37.8" y1="44.34" x2="70.8" y2="90.73"/>
				<line class="st1" x1="16.86" y1="62.95" x2="52.6" y2="113.2"/>
				<line class="st1" x1="-4.08" y1="81.57" x2="34.4" y2="135.66"/>
				<line class="st1" x1="67.99" y1="230.93" x2="127.65" y2="314.78"/>
				<line class="st1" x1="-25.02" y1="100.19" x2="16.2" y2="158.13"/>
				<line class="st1" x1="-45.95" y1="118.81" x2="107.53" y2="334.55"/>
				<line class="st1" x1="-66.89" y1="137.43" x2="87.41" y2="354.32"/>
			</g>
			<g>
				<path class="st1" d="M554.67-212.93"/>
				<line class="st1" x1="1054.32" y1="231.8" x2="1061.48" y2="237.18"/>
				<line class="st1" x1="1021.53" y1="242.02" x2="1041.18" y2="256.76"/>
				<line class="st1" x1="988.75" y1="252.23" x2="1020.87" y2="276.35"/>
				<line class="st1" x1="872.58" y1="165.03" x2="941.07" y2="216.44"/>
				<line class="st1" x1="831.78" y1="169.23" x2="1000.56" y2="295.93"/>
				<line class="st1" x1="790.98" y1="173.43" x2="925.99" y2="274.78"/>
				<line class="st1" x1="750.17" y1="177.63" x2="939.36" y2="319.65"/>
				<line class="st1" x1="709.37" y1="181.82" x2="952.21" y2="364.12"/>
				<line class="st1" x1="680.77" y1="195.18" x2="965.32" y2="408.8"/>
				<line class="st1" x1="694.15" y1="240.06" x2="978.44" y2="453.47"/>
				<line class="st1" x1="1005.65" y1="508.73" x2="1028.78" y2="526.09"/>
				<line class="st1" x1="707.54" y1="284.94" x2="991.55" y2="498.14"/>
				<line class="st1" x1="720.93" y1="329.82" x2="1009.64" y2="546.55"/>
				<line class="st1" x1="721.72" y1="365.24" x2="990.49" y2="567"/>
				<line class="st1" x1="701.17" y1="384.64" x2="971.34" y2="587.46"/>
				<line class="st1" x1="910.98" y1="576.98" x2="952.2" y2="607.91"/>
				<line class="st1" x1="680.62" y1="404.05" x2="889.28" y2="560.69"/>
				<line class="st1" x1="909.89" y1="610.98" x2="933.05" y2="628.37"/>
				<line class="st1" x1="660.07" y1="423.45" x2="856.39" y2="570.82"/>
				<line class="st1" x1="908.8" y1="644.99" x2="914.69" y2="649.42"/>
				<line class="st1" x1="639.52" y1="442.86" x2="823.25" y2="580.78"/>
				<line class="st1" x1="618.98" y1="462.26" x2="790.6" y2="591.1"/>
				<line class="st1" x1="598.43" y1="481.66" x2="757.71" y2="601.23"/>
				<line class="st1" x1="577.88" y1="501.07" x2="724.81" y2="611.37"/>
				<line class="st1" x1="557.33" y1="520.47" x2="691.92" y2="621.5"/>
				<line class="st1" x1="536.78" y1="539.87" x2="659.03" y2="631.64"/>
				<line class="st1" x1="516.23" y1="559.28" x2="626.13" y2="641.78"/>
				<line class="st1" x1="495.68" y1="578.68" x2="593.39" y2="652.03"/>
				<line class="st1" x1="475.14" y1="598.09" x2="560.35" y2="662.05"/>
				<line class="st1" x1="454.59" y1="617.49" x2="527.45" y2="672.19"/>
				<line class="st1" x1="434.04" y1="636.89" x2="504.71" y2="689.94"/>
				<line class="st1" x1="413.49" y1="656.3" x2="482.48" y2="708.09"/>
				<line class="st1" x1="256.1" y1="538.15" x2="294.67" y2="567.1"/>
				<line class="st1" x1="392.94" y1="675.7" x2="460.26" y2="726.23"/>
				<line class="st1" x1="231.35" y1="554.4" x2="317.2" y2="618.84"/>
				<line class="st1" x1="372.39" y1="695.1" x2="438.03" y2="744.38"/>
				<line class="st1" x1="206.61" y1="570.65" x2="339.73" y2="670.58"/>
				<line class="st1" x1="179.74" y1="585.31" x2="415.81" y2="762.52"/>
				<line class="st1" x1="136.73" y1="587.86" x2="393.58" y2="780.67"/>
				<line class="st1" x1="112.01" y1="604.13" x2="371.36" y2="798.81"/>
				<line class="st1" x1="123.65" y1="647.69" x2="349.13" y2="816.96"/>
				<line class="st1" x1="135.23" y1="691.22" x2="266.25" y2="789.57"/>
			</g>
			<g>
				<path class="st1" d="M951.7-622.73"/>
				<line class="st1" x1="922.49" y1="-589.4" x2="1068.38" y2="-614.69"/>
				<line class="st1" x1="913.69" y1="-559.6" x2="1113.56" y2="-594.25"/>
				<line class="st1" x1="913.65" y1="-531.33" x2="1121.87" y2="-567.43"/>
				<line class="st1" x1="913.53" y1="-503.03" x2="1130.18" y2="-540.6"/>
				<line class="st1" x1="913.58" y1="-474.77" x2="1138.49" y2="-513.77"/>
				<line class="st1" x1="913.49" y1="-446.49" x2="1117.58" y2="-481.87"/>
				<line class="st1" x1="1145.39" y1="-458.43" x2="1214.32" y2="-470.37"/>
				<line class="st1" x1="912.73" y1="-418.09" x2="1097.17" y2="-450.06"/>
				<line class="st1" x1="1119.86" y1="-425.73" x2="1197.07" y2="-439.12"/>
				<line class="st1" x1="913.04" y1="-389.87" x2="1075.21" y2="-417.99"/>
				<line class="st1" x1="1094.33" y1="-393.03" x2="1169.36" y2="-406.04"/>
				<line class="st1" x1="913.19" y1="-361.63" x2="1053.36" y2="-385.93"/>
				<line class="st1" x1="1068.79" y1="-360.34" x2="1144.97" y2="-373.54"/>
				<line class="st1" x1="913.39" y1="-333.39" x2="1028.97" y2="-353.43"/>
				<polyline class="st1" points="913.35,-305.12 1043.26,-327.64 1118.91,-340.76 			"/>
				<line class="st1" x1="913.21" y1="-276.82" x2="1092.86" y2="-307.97"/>
				<line class="st1" x1="913.27" y1="-248.56" x2="1063.75" y2="-274.65"/>
				<line class="st1" x1="913.24" y1="-220.29" x2="1039.03" y2="-242.1"/>
				<line class="st1" x1="1182.31" y1="-238.67" x2="1207.38" y2="-243.01"/>
				<line class="st1" x1="911.65" y1="-191.74" x2="1014.63" y2="-209.6"/>
				<line class="st1" x1="1140.01" y1="-203.06" x2="1212" y2="-215.55"/>
				<line class="st1" x1="897.88" y1="-161.09" x2="988.64" y2="-176.82"/>
				<line class="st1" x1="884.12" y1="-130.43" x2="1216.62" y2="-188.08"/>
				<line class="st1" x1="870.26" y1="-99.76" x2="1221.25" y2="-160.61"/>
				<line class="st1" x1="856.4" y1="-69.09" x2="1225.87" y2="-133.14"/>
				<line class="st1" x1="843.03" y1="-38.5" x2="1230.5" y2="-105.67"/>
				<line class="st1" x1="829.07" y1="-7.81" x2="1235.12" y2="-78.21"/>
				<line class="st1" x1="815.18" y1="22.87" x2="1239.75" y2="-50.74"/>
				<line class="st1" x1="815.33" y1="51.11" x2="1244.37" y2="-23.27"/>
				<line class="st1" x1="822.53" y1="78.14" x2="1248.99" y2="4.2"/>
				<line class="st1" x1="828.97" y1="105.29" x2="1253.58" y2="31.67"/>
				<line class="st1" x1="836.74" y1="132.21" x2="1257.89" y2="59.19"/>
				<line class="st1" x1="843.41" y1="159.32" x2="1262.19" y2="86.72"/>
				<line class="st1" x1="918.38" y1="174.6" x2="1266.5" y2="114.24"/>
				<line class="st1" x1="932.39" y1="200.44" x2="1270.81" y2="141.76"/>
				<line class="st1" x1="946.4" y1="226.28" x2="1275.11" y2="169.29"/>
				<path class="st1" d="M599.34,286.45"/>
			</g>
			<g>
				<g>
					<line class="st1" x1="786.13" y1="1050.5" x2="735.12" y2="1118.45"/>
					<line class="st1" x1="830.67" y1="944.77" x2="695.65" y2="1124.64"/>
					<line class="st1" x1="821.88" y1="910.09" x2="658.51" y2="1127.72"/>
					<line class="st1" x1="802.91" y1="888.96" x2="635.15" y2="1112.44"/>
					<line class="st1" x1="783.96" y1="867.81" x2="611.79" y2="1097.16"/>
					<line class="st1" x1="765.01" y1="846.65" x2="588.43" y2="1081.89"/>
					<line class="st1" x1="712.62" y1="870.05" x2="565.06" y2="1066.62"/>
					<line class="st1" x1="625.06" y1="940.29" x2="541.7" y2="1051.33"/>
					<line class="st1" x1="607.29" y1="917.57" x2="518.34" y2="1036.06"/>
					<line class="st1" x1="589.52" y1="894.85" x2="494.92" y2="1020.87"/>
					<line class="st1" x1="571.75" y1="872.13" x2="471.62" y2="1005.51"/>
					<line class="st1" x1="547.49" y1="858.03" x2="448.26" y2="990.23"/>
					<line class="st1" x1="489.85" y1="888.42" x2="424.95" y2="974.88"/>
					<line class="st1" x1="463.43" y1="877.22" x2="401.54" y2="959.68"/>
					<line class="st1" x1="437.02" y1="866.02" x2="378.18" y2="944.4"/>
					<line class="st1" x1="410.6" y1="854.81" x2="354.84" y2="929.08"/>
					<line class="st1" x1="384.34" y1="843.39" x2="330.17" y2="915.55"/>
					<line class="st1" x1="357.91" y1="832.2" x2="307.9" y2="898.83"/>
				</g>
				<g>
					<line class="st1" x1="1485.48" y1="130.64" x2="1430.5" y2="203.87"/>
					<line class="st1" x1="1476.93" y1="95.63" x2="1394.66" y2="205.22"/>
					<line class="st1" x1="1328.18" y1="247.39" x2="1316.69" y2="262.69"/>
					<line class="st1" x1="1468.38" y1="60.62" x2="1358.82" y2="206.57"/>
					<line class="st1" x1="1459.57" y1="25.96" x2="1301.71" y2="236.25"/>
					<line class="st1" x1="1451.29" y1="-9.41" x2="1286.73" y2="209.8"/>
					<line class="st1" x1="1442.74" y1="-44.42" x2="1276.36" y2="177.23"/>
					<line class="st1" x1="1394.41" y1="-26.43" x2="1270.46" y2="138.69"/>
					<line class="st1" x1="1346.01" y1="-8.35" x2="1264.34" y2="100.44"/>
					<line class="st1" x1="1296.52" y1="11.18" x2="1258.33" y2="62.05"/>
				</g>
			</g>
			<g>
				<line class="st1" x1="1347.72" y1="392.37" x2="1472.26" y2="485.86"/>
				<line class="st1" x1="1326.04" y1="410.93" x2="1453.07" y2="506.29"/>
				<line class="st1" x1="1304.37" y1="429.49" x2="1433.88" y2="526.71"/>
				<line class="st1" x1="1282.7" y1="448.05" x2="1414.69" y2="547.13"/>
				<line class="st1" x1="1261.56" y1="467.02" x2="1395.5" y2="567.56"/>
				<line class="st1" x1="1243.5" y1="488.29" x2="1376.3" y2="587.98"/>
				<line class="st1" x1="1225.44" y1="509.56" x2="1357.11" y2="608.4"/>
				<line class="st1" x1="1207.38" y1="530.83" x2="1337.92" y2="628.82"/>
				<line class="st1" x1="1189.31" y1="552.1" x2="1318.73" y2="649.25"/>
				<line class="st1" x1="1171.25" y1="573.37" x2="1299.54" y2="669.67"/>
				<line class="st1" x1="1153.19" y1="594.64" x2="1280.35" y2="690.09"/>
				<line class="st1" x1="1135.13" y1="615.9" x2="1261.16" y2="710.52"/>
				<line class="st1" x1="1117.06" y1="637.17" x2="1241.97" y2="730.94"/>
				<line class="st1" x1="1099" y1="658.44" x2="1222.78" y2="751.36"/>
				<line class="st1" x1="1080.9" y1="679.68" x2="1203.59" y2="771.78"/>
				<line class="st1" x1="1057.79" y1="697.17" x2="1184.4" y2="792.21"/>
				<line class="st1" x1="1009.55" y1="695.78" x2="1165.2" y2="812.63"/>
				<line class="st1" x1="961.43" y1="694.49" x2="1141.9" y2="829.96"/>
				<line class="st1" x1="943.09" y1="715.55" x2="1118.6" y2="847.3"/>
				<line class="st1" x1="930.5" y1="740.93" x2="1095.29" y2="864.63"/>
				<line class="st1" x1="917.92" y1="766.31" x2="1071.99" y2="881.97"/>
				<line class="st1" x1="905.33" y1="791.69" x2="1048.68" y2="899.3"/>
				<line class="st1" x1="892.74" y1="817.07" x2="1025.38" y2="916.64"/>
				<line class="st1" x1="880.15" y1="842.45" x2="1002.07" y2="933.97"/>
				<line class="st1" x1="867.56" y1="867.83" x2="978.77" y2="951.31"/>
				<line class="st1" x1="854.97" y1="893.21" x2="955.46" y2="968.64"/>
				<line class="st1" x1="842.38" y1="918.58" x2="932.16" y2="985.98"/>
				<line class="st1" x1="830.72" y1="944.66" x2="908.85" y2="1003.31"/>
				<line class="st1" x1="819.57" y1="971.12" x2="885.55" y2="1020.65"/>
				<line class="st1" x1="808.43" y1="997.58" x2="862.24" y2="1037.98"/>
				<line class="st1" x1="797.28" y1="1024.04" x2="838.94" y2="1055.31"/>
				<line class="st1" x1="786.13" y1="1050.5" x2="815.63" y2="1072.65"/>
				<line class="st1" x1="774.98" y1="1076.96" x2="793.54" y2="1090.89"/>
				<line class="st1" x1="763.84" y1="1103.43" x2="769.46" y2="1107.65"/>
			</g>
		</g>
		<use xlink:href="#SVGID_1_" style="overflow:visible;fill:none;stroke:#39c674;stroke-width:2;stroke-miterlimit:10;"/>
	</g>
</svg>
