<?xml version="1.0" encoding="utf-8"?>
<!-- Generator: Adobe Illustrator 28.0.0, SVG Export Plug-In . SVG Version: 6.00 Build 0)  -->
<svg version="1.1" id="Layer_1"
	xmlns="http://www.w3.org/2000/svg"
	xmlns:xlink="http://www.w3.org/1999/xlink" x="0px" y="0px" viewBox="0 0 106 1490" style="enable-background:new 0 0 106 1490;" xml:space="preserve">
	<style type="text/css">
	.st0{clip-path:url(#SVGID_00000159447577130736128280000006423227197688010665_);}
	.st1{fill:none;stroke:#39c674;stroke-width:2;stroke-miterlimit:10;}
	</style>
	<g>
		<defs>
			<polygon id="SVGID_1_" points="105.75,-9.66 105.75,1490.03 2.09,1490.03 2.09,-18.65 		"/>
		</defs>
		<clipPath id="SVGID_00000078748081260406395230000005262055733934937526_">
			<use xlink:href="#SVGID_1_" style="overflow:visible;"/>
		</clipPath>
		<g style="clip-path:url(#SVGID_00000078748081260406395230000005262055733934937526_);">
			<polyline class="st1" points="137.49,3.01 200.65,-125.53 316.42,-109.28 366.23,-12.38 330.33,139.1 278.82,165.05 
			209.77,156.49 205.45,41.71 137.49,3.01 -44.11,47.33 		"/>
			<polyline class="st1" points="-338.65,-13.66 -226.72,26.54 -44.11,47.33 30.57,236.55 		"/>
			<line class="st1" x1="199.16" y1="210.17" x2="228.16" y2="416.46"/>
			<line class="st1" x1="-465.14" y1="270.08" x2="-338.65" y2="-13.66"/>
			<path class="st1" d="M-150.63,520.01"/>
			<line class="st1" x1="199.16" y1="210.17" x2="278.82" y2="165.05"/>
			<g>
				<polyline class="st1" points="199.16,210.17 30.57,236.55 -255.44,284.7 -184.58,368.97 -150.63,520.01 -465.14,270.08 			"/>
			</g>
			<polyline class="st1" points="187.31,811.86 163.31,578.57 262.01,525.04 228.16,416.46 		"/>
			<line class="st1" x1="228.16" y1="416.46" x2="509.14" y2="442.87"/>
			<line class="st1" x1="330.33" y1="139.1" x2="466.08" y2="225.35"/>
			<polyline class="st1" points="466.08,225.35 378.62,123.22 466.27,-3.16 814.87,324.4 		"/>
			<line class="st1" x1="509.14" y1="442.87" x2="656.84" y2="581.12"/>
			<polyline class="st1" points="656.84,581.12 556,577.88 674.92,963.76 826.95,1149.98 		"/>
			<polyline class="st1" points="826.95,1149.98 891.56,997.64 656.84,581.12 		"/>
			<line class="st1" x1="712.3" y1="679.53" x2="831.98" y2="739.99"/>
			<line class="st1" x1="831.98" y1="739.99" x2="929.86" y2="651.71"/>
			<line class="st1" x1="929.86" y1="651.71" x2="1116.95" y2="730.53"/>
			<polyline class="st1" points="831.98,739.99 957.42,852.9 854.53,933.37 		"/>
			<polyline class="st1" points="814.87,324.4 699.64,423.69 696.41,535.91 929.86,651.71 		"/>
			<line class="st1" x1="466.08" y1="225.35" x2="699.64" y2="423.69"/>
			<polyline class="st1" points="826.95,1149.98 898.05,1185.73 1132.13,827.77 1116.95,730.53 		"/>
			<polyline class="st1" points="187.31,811.86 360.27,760.26 712.05,1132.8 466.89,1239.54 		"/>
			<polyline class="st1" points="466.89,1239.54 277.5,983.19 105.57,972 		"/>
			<polyline class="st1" points="277.5,983.19 148.1,1101.24 143.16,1196.62 8.35,1350.28 172.14,1482.94 405.06,1248.9 		"/>
			<line class="st1" x1="105.57" y1="972" x2="187.31" y2="811.86"/>
			<line class="st1" x1="169.96" y1="643.22" x2="35.56" y2="679.01"/>
			<line class="st1" x1="-166.36" y1="682.74" x2="-81.57" y2="626.42"/>
			<polyline class="st1" points="-166.36,682.74 -25.11,744.98 35.56,679.01 		"/>
			<polyline class="st1" points="-260.15,785.33 23.74,969.89 105.57,972 		"/>
			<line class="st1" x1="-166.36" y1="682.74" x2="-260.15" y2="785.33"/>
			<polyline class="st1" points="-312.84,965.59 -336.07,1006.75 -473.22,957 -355.32,771.75 -414.98,634.84 -225.83,578.11 
			-166.36,682.74 		"/>
			<polyline class="st1" points="-312.84,965.59 -386.16,929.91 -260.15,785.33 		"/>
			<polyline class="st1" points="-372.95,731.3 -733.51,738.44 -625.49,575.83 -192.97,576.41 35.56,679.01 		"/>
			<polyline class="st1" points="-575.79,575.89 -621.26,540.79 -609.53,381.47 -509.24,350.41 -336.86,468.39 -322.2,448.86 
			-491.81,316.4 -465.14,270.08 		"/>
			<polyline class="st1" points="509.14,442.87 511.44,494.81 276.77,563.69 312.29,503.69 228.16,416.46 		"/>
			<line class="st1" x1="405.06" y1="1248.9" x2="466.89" y2="1239.54"/>
			<polyline class="st1" points="-20.23,941.31 -89.59,986.68 -312.84,965.59 		"/>
			<polyline class="st1" points="-367.18,995.32 -379.22,1103.11 -256.64,1276.14 -132.68,1250.25 158.15,1577.28 376.14,1422.13 		
			"/>
			<line class="st1" x1="376.14" y1="1422.13" x2="304.86" y2="1349.58"/>
			<line class="st1" x1="376.14" y1="1422.13" x2="527.12" y2="1213.32"/>
			<polyline class="st1" points="376.14,1422.13 364.12,1617.05 447.86,1621.84 		"/>
			<polyline class="st1" points="447.86,1621.84 597.67,1481 587.25,1304.88 527.12,1213.32 		"/>
			<line class="st1" x1="592.48" y1="1380.78" x2="733.87" y2="1344.31"/>
			<line class="st1" x1="733.87" y1="1344.31" x2="826.95" y2="1149.98"/>
			<polyline class="st1" points="733.87,1344.31 699.1,1645.89 447.86,1621.84 		"/>
			<line class="st1" x1="814.87" y1="324.4" x2="1116.95" y2="730.53"/>
			<polyline class="st1" points="-338.65,-13.66 -116.16,-203.9 -40.44,-173.12 -127.8,-48.32 -44.11,47.33 		"/>
			<line class="st1" x1="-40.44" y1="-173.12" x2="200.65" y2="-125.53"/>
			<g>
				<line class="st1" x1="-118.26" y1="877.68" x2="-251.33" y2="777.78"/>
				<line class="st1" x1="51.95" y1="970.62" x2="-232.89" y2="756.8"/>
				<line class="st1" x1="99.99" y1="971.86" x2="-214.54" y2="735.74"/>
				<line class="st1" x1="116.93" y1="949.74" x2="-195.82" y2="714.96"/>
				<line class="st1" x1="129.79" y1="924.56" x2="-176.94" y2="694.31"/>
				<line class="st1" x1="142.64" y1="899.38" x2="-119.14" y2="702.87"/>
				<line class="st1" x1="155.49" y1="874.2" x2="-21.65" y2="741.22"/>
				<line class="st1" x1="168.34" y1="849.02" x2="-1.77" y2="721.32"/>
				<line class="st1" x1="181.2" y1="823.84" x2="16.25" y2="700.01"/>
				<line class="st1" x1="184.88" y1="791.77" x2="35.24" y2="679.44"/>
				<line class="st1" x1="181.39" y1="754.33" x2="69.15" y2="670.07"/>
				<line class="st1" x1="177.51" y1="716.58" x2="103.4" y2="660.95"/>
				<line class="st1" x1="173.63" y1="678.84" x2="137.64" y2="651.83"/>
			</g>
			<g>
				<line class="st1" x1="-372.76" y1="1032.27" x2="-282.79" y2="968.27"/>
				<line class="st1" x1="-375.33" y1="1068.29" x2="-240.57" y2="972.41"/>
				<line class="st1" x1="-378.22" y1="1104.53" x2="-199.3" y2="977.24"/>
				<line class="st1" x1="-362.12" y1="1127.25" x2="-154.84" y2="979.8"/>
				<line class="st1" x1="-346.01" y1="1149.98" x2="-113.32" y2="984.44"/>
				<line class="st1" x1="-329.91" y1="1172.71" x2="-12.09" y2="946.61"/>
				<line class="st1" x1="-313.81" y1="1195.44" x2="13.02" y2="962.93"/>
				<line class="st1" x1="-297.71" y1="1218.17" x2="50.32" y2="970.58"/>
				<line class="st1" x1="-281.6" y1="1240.89" x2="96.69" y2="971.77"/>
				<line class="st1" x1="-265.5" y1="1263.62" x2="141.16" y2="974.32"/>
				<line class="st1" x1="-226.07" y1="1269.75" x2="185.18" y2="977.18"/>
				<line class="st1" x1="-158.06" y1="1255.55" x2="229.2" y2="980.05"/>
				<line class="st1" x1="-121.01" y1="1263.38" x2="273.22" y2="982.92"/>
				<line class="st1" x1="-102.39" y1="1284.31" x2="147.84" y2="1106.3"/>
				<line class="st1" x1="-83.77" y1="1305.25" x2="146" y2="1141.79"/>
				<line class="st1" x1="-65.15" y1="1326.19" x2="144.16" y2="1177.28"/>
				<line class="st1" x1="-46.41" y1="1347.04" x2="106.85" y2="1238.01"/>
				<line class="st1" x1="-28.19" y1="1368.26" x2="27.04" y2="1328.97"/>
				<line class="st1" x1="-9.34" y1="1389.03" x2="25.55" y2="1364.22"/>
				<line class="st1" x1="9.2" y1="1410.03" x2="48.02" y2="1382.41"/>
				<line class="st1" x1="27.95" y1="1430.88" x2="70.49" y2="1400.61"/>
				<line class="st1" x1="46.57" y1="1451.81" x2="92.96" y2="1418.81"/>
				<line class="st1" x1="65.19" y1="1472.75" x2="115.43" y2="1437.01"/>
				<line class="st1" x1="83.81" y1="1493.69" x2="137.9" y2="1455.21"/>
				<line class="st1" x1="233.16" y1="1421.62" x2="317.02" y2="1361.96"/>
				<line class="st1" x1="102.43" y1="1514.62" x2="160.37" y2="1473.41"/>
				<line class="st1" x1="121.05" y1="1535.56" x2="336.79" y2="1382.08"/>
				<line class="st1" x1="139.67" y1="1556.5" x2="356.56" y2="1402.2"/>
			</g>
			<g>
				<path class="st1" d="M-210.7,934.94"/>
				<line class="st1" x1="234.03" y1="435.29" x2="239.41" y2="428.13"/>
				<line class="st1" x1="244.25" y1="468.08" x2="259" y2="448.43"/>
				<line class="st1" x1="254.47" y1="500.86" x2="278.58" y2="468.74"/>
				<line class="st1" x1="167.27" y1="617.03" x2="218.67" y2="548.54"/>
				<line class="st1" x1="171.46" y1="657.83" x2="298.17" y2="489.04"/>
				<line class="st1" x1="175.66" y1="698.63" x2="277.02" y2="563.62"/>
				<line class="st1" x1="179.86" y1="739.44" x2="321.88" y2="550.25"/>
				<line class="st1" x1="184.06" y1="780.24" x2="366.36" y2="537.4"/>
				<line class="st1" x1="197.42" y1="808.84" x2="411.03" y2="524.28"/>
				<line class="st1" x1="242.3" y1="795.45" x2="455.7" y2="511.17"/>
				<line class="st1" x1="510.96" y1="483.96" x2="528.33" y2="460.82"/>
				<line class="st1" x1="287.18" y1="782.07" x2="500.37" y2="498.06"/>
				<line class="st1" x1="332.06" y1="768.68" x2="548.78" y2="479.97"/>
				<line class="st1" x1="367.48" y1="767.89" x2="569.24" y2="499.12"/>
				<line class="st1" x1="386.88" y1="788.44" x2="589.69" y2="518.27"/>
				<line class="st1" x1="579.21" y1="578.63" x2="610.15" y2="537.41"/>
				<line class="st1" x1="406.28" y1="808.99" x2="562.92" y2="600.33"/>
				<line class="st1" x1="613.22" y1="579.72" x2="630.61" y2="556.56"/>
				<line class="st1" x1="425.69" y1="829.54" x2="573.06" y2="633.22"/>
				<line class="st1" x1="647.23" y1="580.81" x2="651.65" y2="574.92"/>
				<line class="st1" x1="445.09" y1="850.08" x2="583.01" y2="666.36"/>
				<line class="st1" x1="464.49" y1="870.63" x2="593.33" y2="699.01"/>
				<line class="st1" x1="483.9" y1="891.18" x2="603.47" y2="731.9"/>
				<line class="st1" x1="503.3" y1="911.73" x2="613.6" y2="764.79"/>
				<line class="st1" x1="522.71" y1="932.28" x2="623.74" y2="797.69"/>
				<line class="st1" x1="542.11" y1="952.83" x2="633.88" y2="830.58"/>
				<line class="st1" x1="561.51" y1="973.38" x2="644.01" y2="863.48"/>
				<line class="st1" x1="580.92" y1="993.92" x2="654.26" y2="896.22"/>
				<line class="st1" x1="600.32" y1="1014.47" x2="664.29" y2="929.26"/>
				<line class="st1" x1="619.72" y1="1035.02" x2="674.42" y2="962.16"/>
				<line class="st1" x1="639.13" y1="1055.57" x2="692.18" y2="984.9"/>
				<line class="st1" x1="658.53" y1="1076.12" x2="710.32" y2="1007.13"/>
				<line class="st1" x1="540.38" y1="1233.51" x2="569.34" y2="1194.93"/>
				<line class="st1" x1="677.94" y1="1096.67" x2="728.47" y2="1029.35"/>
				<line class="st1" x1="556.63" y1="1258.26" x2="621.08" y2="1172.41"/>
				<line class="st1" x1="697.34" y1="1117.22" x2="746.61" y2="1051.58"/>
				<line class="st1" x1="572.89" y1="1283" x2="672.82" y2="1149.88"/>
				<line class="st1" x1="587.55" y1="1309.87" x2="764.76" y2="1073.8"/>
				<line class="st1" x1="590.09" y1="1352.87" x2="782.9" y2="1096.03"/>
				<line class="st1" x1="606.36" y1="1377.6" x2="801.05" y2="1118.25"/>
				<line class="st1" x1="649.93" y1="1365.96" x2="819.19" y2="1140.47"/>
				<line class="st1" x1="693.45" y1="1354.38" x2="791.81" y2="1223.36"/>
			</g>
			<g>
				<path class="st1" d="M-620.5,537.91"/>
				<line class="st1" x1="-587.16" y1="567.12" x2="-612.45" y2="421.23"/>
				<line class="st1" x1="-557.37" y1="575.92" x2="-592.02" y2="376.05"/>
				<line class="st1" x1="-529.09" y1="575.96" x2="-565.19" y2="367.74"/>
				<line class="st1" x1="-500.8" y1="576.08" x2="-538.36" y2="359.43"/>
				<line class="st1" x1="-472.54" y1="576.03" x2="-511.53" y2="351.12"/>
				<line class="st1" x1="-444.25" y1="576.11" x2="-479.64" y2="372.03"/>
				<line class="st1" x1="-456.19" y1="344.21" x2="-468.14" y2="275.29"/>
				<line class="st1" x1="-415.85" y1="576.88" x2="-447.83" y2="392.44"/>
				<line class="st1" x1="-423.49" y1="369.75" x2="-436.88" y2="292.53"/>
				<line class="st1" x1="-387.64" y1="576.56" x2="-415.75" y2="414.39"/>
				<line class="st1" x1="-390.8" y1="395.28" x2="-403.81" y2="320.25"/>
				<line class="st1" x1="-359.39" y1="576.42" x2="-383.69" y2="436.25"/>
				<line class="st1" x1="-358.1" y1="420.82" x2="-371.31" y2="344.64"/>
				<line class="st1" x1="-331.16" y1="576.22" x2="-351.2" y2="460.64"/>
				<polyline class="st1" points="-302.88,576.26 -325.4,446.35 -338.52,370.7 			"/>
				<line class="st1" x1="-274.59" y1="576.4" x2="-305.73" y2="396.75"/>
				<line class="st1" x1="-246.33" y1="576.34" x2="-272.42" y2="425.86"/>
				<line class="st1" x1="-218.05" y1="576.37" x2="-239.86" y2="450.58"/>
				<line class="st1" x1="-236.43" y1="307.3" x2="-240.78" y2="282.23"/>
				<line class="st1" x1="-189.51" y1="577.96" x2="-207.36" y2="474.98"/>
				<line class="st1" x1="-200.83" y1="349.6" x2="-213.31" y2="277.61"/>
				<line class="st1" x1="-158.85" y1="591.73" x2="-174.59" y2="500.97"/>
				<line class="st1" x1="-128.19" y1="605.49" x2="-185.84" y2="272.98"/>
				<line class="st1" x1="-97.52" y1="619.35" x2="-158.38" y2="268.36"/>
				<line class="st1" x1="-66.85" y1="633.21" x2="-130.91" y2="263.74"/>
				<line class="st1" x1="-36.26" y1="646.58" x2="-103.44" y2="259.11"/>
				<line class="st1" x1="-5.57" y1="660.54" x2="-75.97" y2="254.49"/>
				<line class="st1" x1="25.11" y1="674.43" x2="-48.5" y2="249.86"/>
				<line class="st1" x1="53.35" y1="674.27" x2="-21.04" y2="245.24"/>
				<line class="st1" x1="80.37" y1="667.08" x2="6.43" y2="240.61"/>
				<line class="st1" x1="107.52" y1="660.64" x2="33.91" y2="236.03"/>
				<line class="st1" x1="134.45" y1="652.87" x2="61.43" y2="231.72"/>
				<line class="st1" x1="161.56" y1="646.19" x2="88.95" y2="227.42"/>
				<line class="st1" x1="176.83" y1="571.23" x2="116.48" y2="223.11"/>
				<line class="st1" x1="202.67" y1="557.22" x2="144" y2="218.8"/>
				<line class="st1" x1="228.51" y1="543.21" x2="171.52" y2="214.5"/>
				<path class="st1" d="M288.69,890.27"/>
			</g>
			<g>
				<g>
					<line class="st1" x1="1052.74" y1="703.48" x2="1120.69" y2="754.49"/>
					<line class="st1" x1="947.01" y1="658.93" x2="1126.87" y2="793.96"/>
					<line class="st1" x1="912.33" y1="667.73" x2="1129.95" y2="831.1"/>
					<line class="st1" x1="891.19" y1="686.69" x2="1114.68" y2="854.46"/>
					<line class="st1" x1="870.05" y1="705.65" x2="1099.4" y2="877.82"/>
					<line class="st1" x1="848.89" y1="724.6" x2="1084.12" y2="901.18"/>
					<line class="st1" x1="872.28" y1="776.99" x2="1068.86" y2="924.55"/>
					<line class="st1" x1="942.53" y1="864.55" x2="1053.57" y2="947.9"/>
					<line class="st1" x1="919.81" y1="882.32" x2="1038.29" y2="971.27"/>
					<line class="st1" x1="897.08" y1="900.09" x2="1023.1" y2="994.69"/>
					<line class="st1" x1="874.36" y1="917.86" x2="1007.74" y2="1017.99"/>
					<line class="st1" x1="860.27" y1="942.11" x2="992.46" y2="1041.35"/>
					<line class="st1" x1="890.66" y1="999.76" x2="977.12" y2="1064.66"/>
					<line class="st1" x1="879.46" y1="1026.17" x2="961.91" y2="1088.07"/>
					<line class="st1" x1="868.25" y1="1052.59" x2="946.63" y2="1111.43"/>
					<line class="st1" x1="857.05" y1="1079.01" x2="931.32" y2="1134.76"/>
					<line class="st1" x1="845.63" y1="1105.27" x2="917.79" y2="1159.44"/>
					<line class="st1" x1="834.43" y1="1131.69" x2="901.07" y2="1181.71"/>
				</g>
				<g>
					<line class="st1" x1="132.88" y1="4.13" x2="206.11" y2="59.11"/>
					<line class="st1" x1="97.86" y1="12.68" x2="207.46" y2="94.95"/>
					<line class="st1" x1="249.62" y1="161.43" x2="264.93" y2="172.92"/>
					<line class="st1" x1="62.85" y1="21.23" x2="208.8" y2="130.79"/>
					<line class="st1" x1="28.19" y1="30.04" x2="238.48" y2="187.9"/>
					<line class="st1" x1="-7.17" y1="38.32" x2="212.04" y2="202.88"/>
					<line class="st1" x1="-42.18" y1="46.86" x2="179.47" y2="213.25"/>
					<line class="st1" x1="-24.19" y1="95.2" x2="140.93" y2="219.15"/>
					<line class="st1" x1="-6.11" y1="143.6" x2="102.68" y2="225.27"/>
					<line class="st1" x1="13.42" y1="193.09" x2="64.28" y2="231.28"/>
				</g>
			</g>
			<g>
				<line class="st1" x1="394.61" y1="141.89" x2="488.1" y2="17.35"/>
				<line class="st1" x1="413.17" y1="163.56" x2="508.52" y2="36.54"/>
				<line class="st1" x1="431.73" y1="185.24" x2="528.95" y2="55.73"/>
				<line class="st1" x1="450.29" y1="206.91" x2="549.37" y2="74.92"/>
				<line class="st1" x1="469.25" y1="228.05" x2="569.79" y2="94.11"/>
				<line class="st1" x1="490.52" y1="246.11" x2="590.21" y2="113.3"/>
				<line class="st1" x1="511.79" y1="264.17" x2="610.64" y2="132.49"/>
				<line class="st1" x1="533.06" y1="282.23" x2="631.06" y2="151.69"/>
				<line class="st1" x1="554.33" y1="300.3" x2="651.48" y2="170.88"/>
				<line class="st1" x1="575.6" y1="318.36" x2="671.91" y2="190.07"/>
				<line class="st1" x1="596.87" y1="336.42" x2="692.33" y2="209.26"/>
				<line class="st1" x1="618.14" y1="354.48" x2="712.75" y2="228.45"/>
				<line class="st1" x1="639.41" y1="372.55" x2="733.17" y2="247.64"/>
				<line class="st1" x1="660.68" y1="390.61" x2="753.6" y2="266.83"/>
				<line class="st1" x1="681.92" y1="408.71" x2="774.02" y2="286.02"/>
				<line class="st1" x1="699.4" y1="431.82" x2="794.44" y2="305.21"/>
				<line class="st1" x1="698.02" y1="480.06" x2="814.87" y2="324.4"/>
				<line class="st1" x1="696.73" y1="528.18" x2="832.2" y2="347.71"/>
				<line class="st1" x1="717.79" y1="546.52" x2="849.53" y2="371.01"/>
				<line class="st1" x1="743.17" y1="559.1" x2="866.87" y2="394.32"/>
				<line class="st1" x1="768.55" y1="571.69" x2="884.2" y2="417.62"/>
				<line class="st1" x1="793.93" y1="584.28" x2="901.54" y2="440.93"/>
				<line class="st1" x1="819.3" y1="596.87" x2="918.87" y2="464.23"/>
				<line class="st1" x1="844.68" y1="609.46" x2="936.21" y2="487.54"/>
				<line class="st1" x1="870.06" y1="622.05" x2="953.54" y2="510.84"/>
				<line class="st1" x1="895.44" y1="634.64" x2="970.88" y2="534.15"/>
				<line class="st1" x1="920.82" y1="647.23" x2="988.21" y2="557.45"/>
				<line class="st1" x1="946.9" y1="658.89" x2="1005.55" y2="580.76"/>
				<line class="st1" x1="973.36" y1="670.03" x2="1022.88" y2="604.06"/>
				<line class="st1" x1="999.82" y1="681.18" x2="1040.22" y2="627.37"/>
				<line class="st1" x1="1026.28" y1="692.33" x2="1057.55" y2="650.67"/>
				<line class="st1" x1="1052.74" y1="703.48" x2="1074.88" y2="673.98"/>
				<line class="st1" x1="1079.2" y1="714.62" x2="1093.13" y2="696.07"/>
				<line class="st1" x1="1105.66" y1="725.77" x2="1109.88" y2="720.15"/>
			</g>
		</g>
		<use xlink:href="#SVGID_1_" style="overflow:visible;fill:none;stroke:#39c674;stroke-width:2;stroke-miterlimit:10;"/>
	</g>
</svg>
